<svg width="13" height="13" viewBox="0 0 13 13" fill="none" xmlns="http://www.w3.org/2000/svg">
<path d="M11.7812 1.11328C11.5527 1.17676 8.81563 2.62696 7.96758 3.13477C7.12461 3.6377 6.45937 4.22363 6.03281 4.83887C5.87031 5.06836 5.59102 5.54688 4.875 6.80664C4.58555 7.31446 4.31641 7.77832 4.28086 7.83203L4.21484 7.92969L3.96094 7.93946C3.37695 7.95899 2.96055 8.17871 2.6457 8.64258C2.50859 8.84278 2.34102 9.22852 2.24453 9.56055C2.15313 9.8877 1.99063 10.1807 1.81797 10.3467C1.69102 10.4639 1.56406 10.5371 1.08672 10.7715C0.766797 10.9277 0.507812 11.0596 0.507812 11.0693C0.507812 11.0889 1.60469 11.2842 2.10742 11.3574C2.53398 11.4209 3.27539 11.4307 3.55977 11.3818C3.81875 11.3379 4.12344 11.2305 4.2707 11.1426C4.85977 10.7861 5.20508 10.1855 5.34219 9.29199C5.36758 9.14551 5.38789 9.02344 5.38789 9.01856C5.44375 8.97949 6.02266 8.66699 6.40859 8.4668C7.11445 8.10059 8.27227 7.47559 8.45 7.36817C9.13555 6.94824 9.76523 6.30371 10.334 5.44434C10.6691 4.93164 11.959 2.72461 12.3094 2.06543C12.4719 1.75293 12.4871 1.70899 12.4871 1.5625C12.4871 1.43555 12.4719 1.38184 12.4211 1.3086C12.2941 1.12305 12.0301 1.04492 11.7812 1.11328ZM11.4004 2.19239C11.3648 2.25586 11.177 2.58301 10.9789 2.91992C9.82109 4.92676 9.5875 5.30274 9.25742 5.70313C9.07461 5.91797 8.59219 6.38672 8.55156 6.38672C8.53633 6.38672 8.49062 6.32324 8.43984 6.25C8.1707 5.8252 7.58672 5.21485 7.20586 4.95606C7.09922 4.88281 7.01289 4.81934 7.00781 4.80957C7.00781 4.79981 7.12461 4.68262 7.27187 4.54102C7.58672 4.23828 7.87617 4.03321 8.31797 3.81348C9.29297 3.31543 9.48086 3.21289 10.8469 2.41699C11.1566 2.23633 11.4156 2.08985 11.4309 2.08985C11.4512 2.08008 11.4359 2.12891 11.4004 2.19239ZM6.78438 5.54199C7.00781 5.70313 7.38867 6.06934 7.57148 6.28906C7.71875 6.46973 7.93203 6.77735 7.93203 6.81153C7.93203 6.83106 7.85078 6.87989 7.45977 7.09473L7.34805 7.15821L7.17539 6.9336C6.94688 6.63086 6.7082 6.3916 6.42891 6.17188L6.19531 5.9961L6.37305 5.69824C6.46953 5.53711 6.56094 5.40528 6.57617 5.40528C6.58125 5.40528 6.67773 5.46387 6.78438 5.54199ZM6.03281 6.79199C6.29688 7.01172 6.66758 7.43164 6.66758 7.50977C6.66758 7.53906 6.29688 7.73926 5.70273 8.03711C5.47422 8.14942 5.22031 8.28613 5.13398 8.33496L4.97656 8.42285L4.9207 8.36426C4.85977 8.31055 4.85977 8.30567 4.91055 8.22754C4.93594 8.1836 5.08828 7.91504 5.24062 7.63184C5.62148 6.9336 5.79922 6.64063 5.83477 6.64063C5.84492 6.64063 5.93125 6.70899 6.03281 6.79199ZM4.3875 8.86231L4.61094 9.07715L4.59063 9.21387C4.52969 9.66797 4.33672 10.1025 4.09805 10.3369C3.92539 10.5078 3.78828 10.5811 3.54961 10.6348C3.33633 10.6836 2.81836 10.708 2.59492 10.6787L2.42227 10.6592L2.54922 10.5176C2.73711 10.3027 2.84375 10.1074 2.99102 9.68262C3.06211 9.46778 3.14844 9.24317 3.18398 9.17969C3.38203 8.79883 3.61562 8.64258 3.98633 8.6377H4.16406L4.3875 8.86231Z" fill="#949AA3"/>
</svg>
