<svg width="162" height="32" viewBox="0 0 162 32" fill="none" xmlns="http://www.w3.org/2000/svg">
<path fill-rule="evenodd" clip-rule="evenodd" d="M13.7143 2.28571H0V16V29.7143H13.7143H27.4286V16V2.28571H13.7143ZM13.7143 2.28571C21.2885 2.28571 27.4286 8.4258 27.4286 16C27.4286 23.5742 21.2885 29.7143 13.7143 29.7143C6.14009 29.7143 0 23.5742 0 16C0 8.4258 6.14009 2.28571 13.7143 2.28571Z" fill="#4A93FF"/>
<circle cx="13.7143" cy="16" r="10.6667" fill="#646E78"/>
<path d="M22.8571 16C22.8571 14.2043 22.3284 12.4484 21.3368 10.9514C20.3453 9.45429 18.9348 8.28235 17.2815 7.58175L16.1821 10.1761C17.3259 10.6608 18.3017 11.4716 18.9877 12.5073C19.6736 13.543 20.0394 14.7577 20.0394 16H22.8571Z" fill="#D1D9E6"/>
<path d="M5.64496 20.2986C6.48921 21.8834 7.78145 23.1846 9.36045 24.0397C10.9394 24.8948 12.7353 25.266 14.5239 25.1069L14.2744 22.3003C13.037 22.4103 11.7946 22.1535 10.7022 21.562C9.60986 20.9704 8.71587 20.0703 8.1318 18.9739L5.64496 20.2986Z" fill="#D1D9E6"/>
<mask id="mask0_10_107" style="mask-type:alpha" maskUnits="userSpaceOnUse" x="35" y="6" width="124" height="24">
<path d="M39.0948 24L35.5352 11.907H38.1196L40.4602 21.0255L43.0933 11.907H45.9703L48.6034 21.0255L50.944 11.907H53.5284L49.9688 24H47.3112L44.5318 14.4914L41.7524 24H39.0948ZM60.8613 24.2926C59.7073 24.2926 58.667 24.0325 57.7406 23.5124C56.8303 22.976 56.107 22.2364 55.5707 21.2937C55.0343 20.3347 54.7661 19.2213 54.7661 17.9535C54.7661 16.6857 55.0343 15.5804 55.5707 14.6377C56.1233 13.6787 56.8628 12.9392 57.7893 12.419C58.7158 11.8827 59.7479 11.6145 60.8857 11.6145C62.0397 11.6145 63.0719 11.8827 63.9821 12.419C64.9086 12.9392 65.64 13.6787 66.1764 14.6377C66.729 15.5804 67.0053 16.6857 67.0053 17.9535C67.0053 19.2213 66.729 20.3347 66.1764 21.2937C65.64 22.2364 64.9086 22.976 63.9821 23.5124C63.0556 24.0325 62.0154 24.2926 60.8613 24.2926ZM60.8613 22.0739C61.479 22.0739 62.0479 21.9195 62.568 21.6107C63.1044 21.3018 63.5351 20.8467 63.8602 20.2453C64.1853 19.6277 64.3478 18.8637 64.3478 17.9535C64.3478 17.0433 64.1853 16.2875 63.8602 15.6861C63.5514 15.0684 63.1288 14.6052 62.5924 14.2964C62.0722 13.9876 61.5034 13.8331 60.8857 13.8331C60.2681 13.8331 59.691 13.9876 59.1547 14.2964C58.6345 14.6052 58.2119 15.0684 57.8868 15.6861C57.5618 16.2875 57.3992 17.0433 57.3992 17.9535C57.3992 18.8637 57.5618 19.6277 57.8868 20.2453C58.2119 20.8467 58.6345 21.3018 59.1547 21.6107C59.6748 21.9195 60.2437 22.0739 60.8613 22.0739ZM69.8002 24V11.907H72.1164L72.3358 14.1989C72.7584 13.4024 73.3435 12.7766 74.0912 12.3215C74.8552 11.8502 75.7735 11.6145 76.8463 11.6145V14.3208H76.1392C75.4241 14.3208 74.782 14.4427 74.2131 14.6865C73.6605 14.914 73.2135 15.3123 72.8722 15.8811C72.5471 16.4338 72.3846 17.2058 72.3846 18.1973V24H69.8002ZM79.0621 24V6.44571H81.6465V16.9051L86.2788 11.907H89.3752L84.2308 17.3928L90.131 24H86.864L81.6465 17.8072V24H79.0621ZM96.3181 24.2926C94.7902 24.2926 93.5305 23.9187 92.539 23.171C91.5475 22.4234 90.9787 21.4319 90.8324 20.1966H93.4411C93.5712 20.7492 93.88 21.2287 94.3676 21.635C94.8552 22.0251 95.4973 22.2202 96.2937 22.2202C97.0739 22.2202 97.6428 22.0577 98.0004 21.7326C98.358 21.4075 98.5368 21.0337 98.5368 20.611C98.5368 19.9934 98.2848 19.5789 97.7809 19.3676C97.2933 19.1401 96.6107 18.9369 95.7329 18.7581C95.0503 18.6118 94.3676 18.4168 93.6849 18.173C93.0185 17.9291 92.4578 17.5878 92.0027 17.149C91.5638 16.6938 91.3444 16.0843 91.3444 15.3204C91.3444 14.2639 91.7507 13.3862 92.5634 12.6872C93.3761 11.9721 94.5139 11.6145 95.9768 11.6145C97.3258 11.6145 98.4148 11.9396 99.2438 12.5897C100.089 13.2399 100.585 14.1582 100.731 15.3448H98.2442C98.1629 14.8246 97.9191 14.4183 97.5128 14.1257C97.1227 13.8331 96.5944 13.6869 95.928 13.6869C95.2778 13.6869 94.774 13.825 94.4164 14.1013C94.0588 14.3614 93.88 14.7027 93.88 15.1253C93.88 15.5479 94.1238 15.8811 94.6114 16.125C95.1153 16.3688 95.7736 16.5882 96.5863 16.7832C97.399 16.962 98.1467 17.1733 98.8293 17.4171C99.5282 17.6447 100.089 17.986 100.512 18.4411C100.934 18.8963 101.146 19.5627 101.146 20.4404C101.162 21.5457 100.731 22.464 99.8533 23.1954C98.9919 23.9269 97.8135 24.2926 96.3181 24.2926ZM103.967 29.3638V11.907H106.283L106.551 13.7844C106.941 13.2155 107.478 12.7116 108.16 12.2728C108.843 11.8339 109.721 11.6145 110.794 11.6145C111.964 11.6145 112.996 11.8908 113.89 12.4434C114.784 12.9961 115.483 13.7519 115.987 14.7109C116.507 15.6698 116.767 16.7589 116.767 17.9779C116.767 19.197 116.507 20.286 115.987 21.245C115.483 22.1877 114.784 22.9354 113.89 23.488C112.996 24.0244 111.956 24.2926 110.769 24.2926C109.826 24.2926 108.989 24.1057 108.258 23.7318C107.543 23.358 106.974 22.8297 106.551 22.147V29.3638H103.967ZM110.33 22.0495C111.436 22.0495 112.346 21.6757 113.061 20.928C113.776 20.1641 114.134 19.1726 114.134 17.9535C114.134 17.1571 113.971 16.45 113.646 15.8324C113.321 15.2147 112.874 14.7352 112.305 14.3939C111.736 14.0363 111.078 13.8575 110.33 13.8575C109.225 13.8575 108.315 14.2395 107.6 15.0034C106.901 15.7674 106.551 16.7507 106.551 17.9535C106.551 19.1726 106.901 20.1641 107.6 20.928C108.315 21.6757 109.225 22.0495 110.33 22.0495ZM123.658 24.2926C122.634 24.2926 121.789 24.1219 121.122 23.7806C120.456 23.4392 119.96 22.9923 119.635 22.4396C119.31 21.8707 119.148 21.2531 119.148 20.5867C119.148 19.4164 119.603 18.4899 120.513 17.8072C121.423 17.1246 122.723 16.7832 124.414 16.7832H127.583V16.5638C127.583 15.6211 127.323 14.914 126.803 14.4427C126.299 13.9713 125.641 13.7356 124.828 13.7356C124.113 13.7356 123.487 13.9144 122.951 14.272C122.431 14.6133 122.114 15.1253 122 15.808H119.416C119.497 14.9303 119.79 14.1826 120.294 13.565C120.814 12.931 121.464 12.4516 122.244 12.1265C123.04 11.7851 123.91 11.6145 124.853 11.6145C126.543 11.6145 127.852 12.0615 128.778 12.9554C129.705 13.8331 130.168 15.0359 130.168 16.5638V24H127.925L127.705 21.9276C127.364 22.594 126.868 23.1548 126.218 23.6099C125.568 24.065 124.715 24.2926 123.658 24.2926ZM124.17 22.1958C124.869 22.1958 125.454 22.0333 125.926 21.7082C126.413 21.3669 126.787 20.9199 127.047 20.3672C127.323 19.8146 127.494 19.2051 127.559 18.5387H124.682C123.658 18.5387 122.927 18.7175 122.488 19.075C122.065 19.4326 121.854 19.8796 121.854 20.416C121.854 20.9686 122.057 21.4075 122.463 21.7326C122.886 22.0414 123.455 22.1958 124.17 22.1958ZM138.911 24.2926C137.724 24.2926 136.659 24.0244 135.717 23.488C134.79 22.9516 134.059 22.2121 133.522 21.2693C133.002 20.3103 132.742 19.2051 132.742 17.9535C132.742 16.702 133.002 15.6048 133.522 14.6621C134.059 13.7031 134.79 12.9554 135.717 12.419C136.659 11.8827 137.724 11.6145 138.911 11.6145C140.406 11.6145 141.658 12.0046 142.665 12.7848C143.689 13.565 144.348 14.6215 144.64 15.9543H141.934C141.771 15.2879 141.414 14.7677 140.861 14.3939C140.308 14.0201 139.658 13.8331 138.911 13.8331C138.277 13.8331 137.692 13.9957 137.155 14.3208C136.619 14.6296 136.188 15.0928 135.863 15.7105C135.538 16.3119 135.375 17.0596 135.375 17.9535C135.375 18.8475 135.538 19.6033 135.863 20.221C136.188 20.8223 136.619 21.2856 137.155 21.6107C137.692 21.9357 138.277 22.0983 138.911 22.0983C139.658 22.0983 140.308 21.9114 140.861 21.5375C141.414 21.1637 141.771 20.6354 141.934 19.9528H144.64C144.364 21.2531 143.714 22.3015 142.69 23.0979C141.666 23.8943 140.406 24.2926 138.911 24.2926ZM153.099 24.2926C151.913 24.2926 150.856 24.0325 149.93 23.5124C149.02 22.976 148.305 22.2364 147.784 21.2937C147.264 20.351 147.004 19.2538 147.004 18.0023C147.004 16.7345 147.256 15.6211 147.76 14.6621C148.28 13.7031 148.995 12.9554 149.906 12.419C150.832 11.8827 151.905 11.6145 153.124 11.6145C154.31 11.6145 155.342 11.8827 156.22 12.419C157.098 12.9392 157.781 13.6381 158.268 14.5158C158.756 15.3935 159 16.3606 159 17.4171C159 17.5797 158.991 17.7585 158.975 17.9535C158.975 18.1323 158.967 18.3355 158.951 18.563H149.54C149.621 19.7333 150.003 20.6273 150.686 21.245C151.385 21.8463 152.189 22.147 153.099 22.147C153.831 22.147 154.44 21.9845 154.928 21.6594C155.432 21.3181 155.806 20.863 156.05 20.2941H158.634C158.309 21.4319 157.659 22.3827 156.683 23.1467C155.724 23.9106 154.53 24.2926 153.099 24.2926ZM153.099 13.7356C152.238 13.7356 151.474 13.9957 150.808 14.5158C150.141 15.0197 149.735 15.7836 149.589 16.8076H156.415C156.366 15.8649 156.033 15.1172 155.416 14.5646C154.798 14.0119 154.026 13.7356 153.099 13.7356Z" fill="white"/>
</mask>
<g mask="url(#mask0_10_107)">
<path d="M39.0948 24L35.5352 11.907H38.1196L40.4602 21.0255L43.0933 11.907H45.9703L48.6034 21.0255L50.944 11.907H53.5284L49.9688 24H47.3112L44.5318 14.4914L41.7524 24H39.0948ZM60.8613 24.2926C59.7073 24.2926 58.667 24.0325 57.7406 23.5124C56.8303 22.976 56.107 22.2364 55.5707 21.2937C55.0343 20.3347 54.7661 19.2213 54.7661 17.9535C54.7661 16.6857 55.0343 15.5804 55.5707 14.6377C56.1233 13.6787 56.8628 12.9392 57.7893 12.419C58.7158 11.8827 59.7479 11.6145 60.8857 11.6145C62.0397 11.6145 63.0719 11.8827 63.9821 12.419C64.9086 12.9392 65.64 13.6787 66.1764 14.6377C66.729 15.5804 67.0053 16.6857 67.0053 17.9535C67.0053 19.2213 66.729 20.3347 66.1764 21.2937C65.64 22.2364 64.9086 22.976 63.9821 23.5124C63.0556 24.0325 62.0154 24.2926 60.8613 24.2926ZM60.8613 22.0739C61.479 22.0739 62.0479 21.9195 62.568 21.6107C63.1044 21.3018 63.5351 20.8467 63.8602 20.2453C64.1853 19.6277 64.3478 18.8637 64.3478 17.9535C64.3478 17.0433 64.1853 16.2875 63.8602 15.6861C63.5514 15.0684 63.1288 14.6052 62.5924 14.2964C62.0722 13.9876 61.5034 13.8331 60.8857 13.8331C60.2681 13.8331 59.691 13.9876 59.1547 14.2964C58.6345 14.6052 58.2119 15.0684 57.8868 15.6861C57.5618 16.2875 57.3992 17.0433 57.3992 17.9535C57.3992 18.8637 57.5618 19.6277 57.8868 20.2453C58.2119 20.8467 58.6345 21.3018 59.1547 21.6107C59.6748 21.9195 60.2437 22.0739 60.8613 22.0739ZM69.8002 24V11.907H72.1164L72.3358 14.1989C72.7584 13.4024 73.3435 12.7766 74.0912 12.3215C74.8552 11.8502 75.7735 11.6145 76.8463 11.6145V14.3208H76.1392C75.4241 14.3208 74.782 14.4427 74.2131 14.6865C73.6605 14.914 73.2135 15.3123 72.8722 15.8811C72.5471 16.4338 72.3846 17.2058 72.3846 18.1973V24H69.8002ZM79.0621 24V6.44571H81.6465V16.9051L86.2788 11.907H89.3752L84.2308 17.3928L90.131 24H86.864L81.6465 17.8072V24H79.0621ZM96.3181 24.2926C94.7902 24.2926 93.5305 23.9187 92.539 23.171C91.5475 22.4234 90.9787 21.4319 90.8324 20.1966H93.4411C93.5712 20.7492 93.88 21.2287 94.3676 21.635C94.8552 22.0251 95.4973 22.2202 96.2937 22.2202C97.0739 22.2202 97.6428 22.0577 98.0004 21.7326C98.358 21.4075 98.5368 21.0337 98.5368 20.611C98.5368 19.9934 98.2848 19.5789 97.7809 19.3676C97.2933 19.1401 96.6107 18.9369 95.7329 18.7581C95.0503 18.6118 94.3676 18.4168 93.6849 18.173C93.0185 17.9291 92.4578 17.5878 92.0027 17.149C91.5638 16.6938 91.3444 16.0843 91.3444 15.3204C91.3444 14.2639 91.7507 13.3862 92.5634 12.6872C93.3761 11.9721 94.5139 11.6145 95.9768 11.6145C97.3258 11.6145 98.4148 11.9396 99.2438 12.5897C100.089 13.2399 100.585 14.1582 100.731 15.3448H98.2442C98.1629 14.8246 97.9191 14.4183 97.5128 14.1257C97.1227 13.8331 96.5944 13.6869 95.928 13.6869C95.2778 13.6869 94.774 13.825 94.4164 14.1013C94.0588 14.3614 93.88 14.7027 93.88 15.1253C93.88 15.5479 94.1238 15.8811 94.6114 16.125C95.1153 16.3688 95.7736 16.5882 96.5863 16.7832C97.399 16.962 98.1467 17.1733 98.8293 17.4171C99.5282 17.6447 100.089 17.986 100.512 18.4411C100.934 18.8963 101.146 19.5627 101.146 20.4404C101.162 21.5457 100.731 22.464 99.8533 23.1954C98.9919 23.9269 97.8135 24.2926 96.3181 24.2926ZM103.967 29.3638V11.907H106.283L106.551 13.7844C106.941 13.2155 107.478 12.7116 108.16 12.2728C108.843 11.8339 109.721 11.6145 110.794 11.6145C111.964 11.6145 112.996 11.8908 113.89 12.4434C114.784 12.9961 115.483 13.7519 115.987 14.7109C116.507 15.6698 116.767 16.7589 116.767 17.9779C116.767 19.197 116.507 20.286 115.987 21.245C115.483 22.1877 114.784 22.9354 113.89 23.488C112.996 24.0244 111.956 24.2926 110.769 24.2926C109.826 24.2926 108.989 24.1057 108.258 23.7318C107.543 23.358 106.974 22.8297 106.551 22.147V29.3638H103.967ZM110.33 22.0495C111.436 22.0495 112.346 21.6757 113.061 20.928C113.776 20.1641 114.134 19.1726 114.134 17.9535C114.134 17.1571 113.971 16.45 113.646 15.8324C113.321 15.2147 112.874 14.7352 112.305 14.3939C111.736 14.0363 111.078 13.8575 110.33 13.8575C109.225 13.8575 108.315 14.2395 107.6 15.0034C106.901 15.7674 106.551 16.7507 106.551 17.9535C106.551 19.1726 106.901 20.1641 107.6 20.928C108.315 21.6757 109.225 22.0495 110.33 22.0495ZM123.658 24.2926C122.634 24.2926 121.789 24.1219 121.122 23.7806C120.456 23.4392 119.96 22.9923 119.635 22.4396C119.31 21.8707 119.148 21.2531 119.148 20.5867C119.148 19.4164 119.603 18.4899 120.513 17.8072C121.423 17.1246 122.723 16.7832 124.414 16.7832H127.583V16.5638C127.583 15.6211 127.323 14.914 126.803 14.4427C126.299 13.9713 125.641 13.7356 124.828 13.7356C124.113 13.7356 123.487 13.9144 122.951 14.272C122.431 14.6133 122.114 15.1253 122 15.808H119.416C119.497 14.9303 119.79 14.1826 120.294 13.565C120.814 12.931 121.464 12.4516 122.244 12.1265C123.04 11.7851 123.91 11.6145 124.853 11.6145C126.543 11.6145 127.852 12.0615 128.778 12.9554C129.705 13.8331 130.168 15.0359 130.168 16.5638V24H127.925L127.705 21.9276C127.364 22.594 126.868 23.1548 126.218 23.6099C125.568 24.065 124.715 24.2926 123.658 24.2926ZM124.17 22.1958C124.869 22.1958 125.454 22.0333 125.926 21.7082C126.413 21.3669 126.787 20.9199 127.047 20.3672C127.323 19.8146 127.494 19.2051 127.559 18.5387H124.682C123.658 18.5387 122.927 18.7175 122.488 19.075C122.065 19.4326 121.854 19.8796 121.854 20.416C121.854 20.9686 122.057 21.4075 122.463 21.7326C122.886 22.0414 123.455 22.1958 124.17 22.1958ZM138.911 24.2926C137.724 24.2926 136.659 24.0244 135.717 23.488C134.79 22.9516 134.059 22.2121 133.522 21.2693C133.002 20.3103 132.742 19.2051 132.742 17.9535C132.742 16.702 133.002 15.6048 133.522 14.6621C134.059 13.7031 134.79 12.9554 135.717 12.419C136.659 11.8827 137.724 11.6145 138.911 11.6145C140.406 11.6145 141.658 12.0046 142.665 12.7848C143.689 13.565 144.348 14.6215 144.64 15.9543H141.934C141.771 15.2879 141.414 14.7677 140.861 14.3939C140.308 14.0201 139.658 13.8331 138.911 13.8331C138.277 13.8331 137.692 13.9957 137.155 14.3208C136.619 14.6296 136.188 15.0928 135.863 15.7105C135.538 16.3119 135.375 17.0596 135.375 17.9535C135.375 18.8475 135.538 19.6033 135.863 20.221C136.188 20.8223 136.619 21.2856 137.155 21.6107C137.692 21.9357 138.277 22.0983 138.911 22.0983C139.658 22.0983 140.308 21.9114 140.861 21.5375C141.414 21.1637 141.771 20.6354 141.934 19.9528H144.64C144.364 21.2531 143.714 22.3015 142.69 23.0979C141.666 23.8943 140.406 24.2926 138.911 24.2926ZM153.099 24.2926C151.913 24.2926 150.856 24.0325 149.93 23.5124C149.02 22.976 148.305 22.2364 147.784 21.2937C147.264 20.351 147.004 19.2538 147.004 18.0023C147.004 16.7345 147.256 15.6211 147.76 14.6621C148.28 13.7031 148.995 12.9554 149.906 12.419C150.832 11.8827 151.905 11.6145 153.124 11.6145C154.31 11.6145 155.342 11.8827 156.22 12.419C157.098 12.9392 157.781 13.6381 158.268 14.5158C158.756 15.3935 159 16.3606 159 17.4171C159 17.5797 158.991 17.7585 158.975 17.9535C158.975 18.1323 158.967 18.3355 158.951 18.563H149.54C149.621 19.7333 150.003 20.6273 150.686 21.245C151.385 21.8463 152.189 22.147 153.099 22.147C153.831 22.147 154.44 21.9845 154.928 21.6594C155.432 21.3181 155.806 20.863 156.05 20.2941H158.634C158.309 21.4319 157.659 22.3827 156.683 23.1467C155.724 23.9106 154.53 24.2926 153.099 24.2926ZM153.099 13.7356C152.238 13.7356 151.474 13.9957 150.808 14.5158C150.141 15.0197 149.735 15.7836 149.589 16.8076H156.415C156.366 15.8649 156.033 15.1172 155.416 14.5646C154.798 14.0119 154.026 13.7356 153.099 13.7356Z" fill="white"/>
<g filter="url(#filter0_f_10_107)">
<circle cx="121.143" cy="60.1905" r="51.0476" fill="#D1D9E6"/>
</g>
<g filter="url(#filter1_f_10_107)">
<circle cx="57.1428" cy="-0.76189" r="19.0476" fill="#D1D9E6"/>
</g>
</g>
<defs>
<filter id="filter0_f_10_107" x="44.1905" y="-16.7619" width="153.905" height="153.905" filterUnits="userSpaceOnUse" color-interpolation-filters="sRGB">
<feFlood flood-opacity="0" result="BackgroundImageFix"/>
<feBlend mode="normal" in="SourceGraphic" in2="BackgroundImageFix" result="shape"/>
<feGaussianBlur stdDeviation="12.9524" result="effect1_foregroundBlur_10_107"/>
</filter>
<filter id="filter1_f_10_107" x="12.1905" y="-45.7143" width="89.9047" height="89.9048" filterUnits="userSpaceOnUse" color-interpolation-filters="sRGB">
<feFlood flood-opacity="0" result="BackgroundImageFix"/>
<feBlend mode="normal" in="SourceGraphic" in2="BackgroundImageFix" result="shape"/>
<feGaussianBlur stdDeviation="12.9524" result="effect1_foregroundBlur_10_107"/>
</filter>
</defs>
</svg>
