<svg width="18" height="19" viewBox="0 0 18 19" fill="none" xmlns="http://www.w3.org/2000/svg">
<path fill-rule="evenodd" clip-rule="evenodd" d="M9 0.5H0V9.5V18.5H9H18V9.5V0.5H9ZM9 0.5C13.9706 0.5 18 4.52944 18 9.5C18 14.4706 13.9706 18.5 9 18.5C4.02944 18.5 0 14.4706 0 9.5C0 4.52944 4.02944 0.5 9 0.5Z" fill="#4A93FF"/>
<circle cx="9" cy="9.5" r="7" fill="#646E78"/>
<path d="M15 9.5C15 8.3216 14.653 7.16928 14.0023 6.18683C13.3516 5.20438 12.426 4.43529 11.341 3.97552L10.6195 5.67808C11.3701 5.99616 12.0105 6.52822 12.4607 7.2079C12.9108 7.88757 13.1509 8.68476 13.1509 9.5H15Z" fill="#D1D9E6"/>
<path d="M3.70452 12.321C4.25856 13.361 5.10659 14.2149 6.1428 14.776C7.17902 15.3372 8.35753 15.5808 9.53131 15.4764L9.36757 13.6346C8.55553 13.7068 7.74022 13.5382 7.02335 13.15C6.30648 12.7618 5.7198 12.1711 5.33651 11.4516L3.70452 12.321Z" fill="#D1D9E6"/>
</svg>
